<?xml version="1.0" encoding="UTF-8"?>
<svg xmlns="http://www.w3.org/2000/svg" width="151.976" height="41.807" viewBox="0 0 151.976 41.807">
  <g id="Grupo_9506" data-name="Grupo 9506" transform="translate(-70 -2.41)">
    <g id="Grupo_9505" data-name="Grupo 9505" transform="translate(70 2.41)">
      <path id="Caminho_24733" data-name="Caminho 24733" d="M300.27,292.931l-2.8-4.231a2.087,2.087,0,0,0-.726-.751,1.718,1.718,0,0,0-.776-.175,2.71,2.71,0,0,0-.488.063,1.761,1.761,0,0,0-.664.313,12.127,12.127,0,0,1-2.378,1.277,7.14,7.14,0,0,1-2.678.5,6.839,6.839,0,0,1-5.17-2.278,7.593,7.593,0,0,1-1.464-2.491,9.227,9.227,0,0,1,0-6.146,8.182,8.182,0,0,1,1.464-2.553,6.827,6.827,0,0,1,2.265-1.74,6.607,6.607,0,0,1,2.9-.639,7.751,7.751,0,0,1,2.69.464,11.452,11.452,0,0,1,2.366,1.188,3.108,3.108,0,0,0,.726.389,1.738,1.738,0,0,0,.551.112,2.006,2.006,0,0,0,1.7-1.226l2.228-3.78a1.732,1.732,0,0,0,.3-.927,1.774,1.774,0,0,0-.326-1.088,4.409,4.409,0,0,0-.8-.689,15.674,15.674,0,0,0-4.344-2.153,16.808,16.808,0,0,0-5.044-.726,16.323,16.323,0,0,0-8.236,2.2,16.448,16.448,0,0,0-3.3,2.541,15.74,15.74,0,0,0-2.553,3.3,16.732,16.732,0,0,0-1.64,3.943,16.931,16.931,0,0,0,0,8.85,17,17,0,0,0,1.64,3.943,15.578,15.578,0,0,0,2.553,3.317,16.8,16.8,0,0,0,3.3,2.554,15.958,15.958,0,0,0,3.893,1.64,16.3,16.3,0,0,0,4.343.576,15.388,15.388,0,0,0,5.17-.863,18.867,18.867,0,0,0,4.493-2.291,4.763,4.763,0,0,0,.788-.638,1.269,1.269,0,0,0,.364-.938,1.061,1.061,0,0,0-.113-.4A4.021,4.021,0,0,0,300.27,292.931Z" transform="translate(-273.483 -256.707)" fill="#9713c5"></path>
      <path id="Caminho_24734" data-name="Caminho 24734" d="M358.1,270.389a16.327,16.327,0,0,0-11.6-4.744,16.707,16.707,0,0,0-8.361,2.2,15.866,15.866,0,0,0-3.317,2.542,16.227,16.227,0,0,0-4.205,7.247,16.69,16.69,0,0,0,1.652,12.793,16.206,16.206,0,0,0,9.814,7.51,16.764,16.764,0,0,0,4.418.576,16.346,16.346,0,0,0,8.286-2.216,16.229,16.229,0,0,0,5.87-5.87,16.688,16.688,0,0,0,1.653-3.943,16.415,16.415,0,0,0,.589-4.419A16.176,16.176,0,0,0,361.6,275.6,16.552,16.552,0,0,0,358.1,270.389Zm-5.107,14.77a7.338,7.338,0,0,1-1.4,2.491,6.62,6.62,0,0,1-2.228,1.664,6.866,6.866,0,0,1-2.941.614,7.161,7.161,0,0,1-3.017-.614,6.818,6.818,0,0,1-2.278-1.664,7.449,7.449,0,0,1-1.452-2.491,9.456,9.456,0,0,1,0-6.146,8.021,8.021,0,0,1,1.452-2.553,6.794,6.794,0,0,1,2.278-1.74,6.924,6.924,0,0,1,3.017-.638,6.552,6.552,0,0,1,5.17,2.378,7.9,7.9,0,0,1,1.4,2.553,9.919,9.919,0,0,1,0,6.146Z" transform="translate(-300.886 -256.707)" fill="#9713c5"></path>
      <path id="Caminho_24735" data-name="Caminho 24735" d="M410.967,248.827a1.856,1.856,0,0,0-.513-.388,1.176,1.176,0,0,0-.525-.138H403.8a1.591,1.591,0,0,0-1.377.55,2.239,2.239,0,0,0-.4,1.352v37.4a2.227,2.227,0,0,0,.4,1.44,1.693,1.693,0,0,0,1.377.488H409.6a1.991,1.991,0,0,0,1.389-.488,1.846,1.846,0,0,0,.538-1.44V250.2a1.831,1.831,0,0,0-.162-.776A2.23,2.23,0,0,0,410.967,248.827Z" transform="translate(-335.783 -248.301)" fill="#9713c5"></path>
      <path id="Caminho_24736" data-name="Caminho 24736" d="M461.853,266.446a1.468,1.468,0,0,0-.651-.351,2.862,2.862,0,0,0-.65-.075h-3.731a3.733,3.733,0,0,0-.776.062.935.935,0,0,0-.464.251,1.788,1.788,0,0,0-.35.576q-.083.2-.188.455c-.148.363-.28.732-.4,1.1l-.552,1.732a11.2,11.2,0,0,0-1.577-1.815,9.754,9.754,0,0,0-2.015-1.44,11.068,11.068,0,0,0-2.454-.951,11.378,11.378,0,0,0-2.891-.35,16.211,16.211,0,0,0-11.567,4.744,16.49,16.49,0,0,0-3.479,5.207,16.311,16.311,0,0,0-1.277,6.471,16.744,16.744,0,0,0,.576,4.419,16.338,16.338,0,0,0,4.181,7.26,16.08,16.08,0,0,0,7.2,4.194,16.4,16.4,0,0,0,4.369.576,9.674,9.674,0,0,0,2.466-.313,11.9,11.9,0,0,0,4.13-1.991,14.622,14.622,0,0,0,1.54-1.326l.325,1.126q.15.426.288.788a2.246,2.246,0,0,0,.339.613,1.3,1.3,0,0,0,.526.388,2.2,2.2,0,0,0,.851.138h4.97a2.18,2.18,0,0,0,1.53-.668,1.055,1.055,0,0,0,.235-.371,2.245,2.245,0,0,0,.15-.813V267.873a2.031,2.031,0,0,0-.15-.8A1.768,1.768,0,0,0,461.853,266.446Zm-9.488,18.712a7.542,7.542,0,0,1-1.664,2.491,7.965,7.965,0,0,1-2.5,1.664,7.862,7.862,0,0,1-3.117.614,7.042,7.042,0,0,1-2.967-.614,6.952,6.952,0,0,1-2.291-1.664,7.323,7.323,0,0,1-1.465-2.491,9.456,9.456,0,0,1,0-6.146,7.878,7.878,0,0,1,1.465-2.553,6.924,6.924,0,0,1,2.291-1.74,6.809,6.809,0,0,1,2.967-.638,7.6,7.6,0,0,1,3.117.638,7.888,7.888,0,0,1,2.5,1.74,8.1,8.1,0,0,1,1.664,2.553,8.159,8.159,0,0,1,0,6.146Z" transform="translate(-348.78 -256.707)" fill="#9713c5"></path>
      <path id="Caminho_24737" data-name="Caminho 24737" d="M536.207,267.189a16.1,16.1,0,0,0-3.229-5.207,14.859,14.859,0,0,0-4.931-3.48,15.378,15.378,0,0,0-6.272-1.264,11.587,11.587,0,0,0-2.5.25,10.018,10.018,0,0,0-2.065.688,9.093,9.093,0,0,0-1.74,1.064,13.058,13.058,0,0,0-1.5,1.376V250.2a1.841,1.841,0,0,0-.551-1.352,2.033,2.033,0,0,0-1.5-.55h-5.682a1.743,1.743,0,0,0-.663.138,1.874,1.874,0,0,0-.6.388,1.938,1.938,0,0,0-.427.6,1.815,1.815,0,0,0-.162.776v37.4q0,1.928,2,1.928h4.957a1.852,1.852,0,0,0,.751-.125,1.238,1.238,0,0,0,.463-.363,2.558,2.558,0,0,0,.339-.6c.033-.08.487-1.139.657-1.589l.169-.451a15.613,15.613,0,0,0,1.539,1.339,12.363,12.363,0,0,0,1.89,1.189,11.746,11.746,0,0,0,2.191.851,9.026,9.026,0,0,0,2.441.326,15.242,15.242,0,0,0,6.272-1.277,15.011,15.011,0,0,0,4.931-3.492,16.067,16.067,0,0,0,3.229-5.22,18.529,18.529,0,0,0,0-12.93Zm-8.361,9.563a7.323,7.323,0,0,1-1.465,2.491,6.9,6.9,0,0,1-5.257,2.278,7.828,7.828,0,0,1-3-.576,7.726,7.726,0,0,1-2.453-1.59,7.933,7.933,0,0,1-2.4-5.345v-.351a7.777,7.777,0,0,1,.613-3.054,8.407,8.407,0,0,1,1.665-2.553,7.73,7.73,0,0,1,2.491-1.74,7.538,7.538,0,0,1,3.092-.638,6.783,6.783,0,0,1,2.979.638,6.96,6.96,0,0,1,2.278,1.74,7.877,7.877,0,0,1,1.465,2.553,9.456,9.456,0,0,1,0,6.146Z" transform="translate(-385.395 -248.301)" fill="#9713c5"></path>
    </g>
  </g>
</svg>
